# xmcd
#
# Track frame offsets:
#	150
#	16349
#	31341
#	48038
#	67615
#	86312
#	100724
#	117603
#	132715
#	149040
#	165071
#
# Disc length: 2416 seconds
#
# Revision: 2
# Processed by: cddbd v1.5.2PL0 Copyright (c) Steve Scherf et al.
# Submitted via: audiograbber 1.83.01
#
DISCID=85096e0b
DTITLE=T.G. Sheppard - Greatest Songs
DYEAR=2004
DGENRE=Country
TTITLE0=I Can Help
TTITLE1=Haunted House
TTITLE2=Daisy a Day
TTITLE3=(Everything I Do) I Do It for You
TTITLE4=When You Crossed That Line
TTITLE5=Mobile Home
TTITLE6=Wide Open Spaces
TTITLE7=From the Desert to the Sea
TTITLE8=Nothing On But the Radio
TTITLE9=Born in a High Wind
TTITLE10=It's One A.M. (Do You Know Where Your Memories Are)
EXTD=
EXTT0=
EXTT1=
EXTT2=
EXTT3=
EXTT4=
EXTT5=
EXTT6=
EXTT7=
EXTT8=
EXTT9=
EXTT10=
PLAYORDER=
